<svg width="120" height="120" fill="none" xmlns="http://www.w3.org/2000/svg"><circle cx="60" cy="60" r="60" fill="#000" fill-opacity=".5"/><path fill-rule="evenodd" clip-rule="evenodd" d="M49.837 17.006c.873-.663 2.745-1.618 4.158-2.157 2.121-.747 3.202-.913 6.861-.83 4.075.125 4.616.25 7.277 1.577 1.996.996 4.075 2.53 10.395 8.587l2.786.166c2.495.166 2.91.29 4.283 1.618.79.789 1.58 1.784 1.663 2.2.124.455 1.04.953 2.578 1.368 1.33.374 3.617 1.245 5.073 1.992 1.455.705 3.284 1.99 4.033 2.862.942 1.023 1.414 1.95 1.414 2.78 0 .912-.5 1.742-1.705 3.028-1.29 1.328-1.497 1.452-.873.498.415-.664.914-1.66 1.08-2.157.125-.54-.04-1.494-.374-2.199-.332-.664-1.497-1.784-2.62-2.49-1.08-.663-2.993-1.617-4.24-2.074-1.248-.414-3.036-.995-3.95-1.203-1.29-.332-1.83-.788-2.495-1.991-.458-.871-1.497-1.991-2.287-2.49-.79-.538-2.12-1.078-2.91-1.244-.79-.124-2.205 0-3.12.29-.914.291-2.245 1.12-2.952 1.826-1.122 1.12-1.663 1.328-4.366 1.577-1.704.165-4.573.746-6.403 1.327-1.83.58-4.449 1.784-5.821 2.655-1.372.913-3.202 2.365-4.034 3.236-.831.913-2.203 2.738-2.993 4.107-.832 1.37-1.58 2.946-1.705 3.527-.125.622-3.16 3.982-7.692 8.504-4.117 4.107-7.485 7.758-7.485 8.09 0 .332.956 1.618 2.162 2.863 1.58 1.576 2.37 2.115 2.828 1.866.332-.166 1.538-1.078 2.66-1.99 1.456-1.204 2.412-2.532 3.369-4.606.748-1.576 1.746-4.563 2.204-6.638.499-2.032.998-4.107 1.08-4.563.126-.456.126.747.042 2.696-.083 1.95-.457 4.647-.831 6.016-.374 1.369-1.164 3.485-1.788 4.73-.624 1.202-1.996 3.235-4.99 6.886l9.855 9.832c5.405 5.435 9.979 9.874 10.228 9.874.208 0 2.703-2.282 10.562-10.164v-5.393c0-4.024.208-6.182.79-8.505.457-1.7 1.247-3.941 1.746-4.978.54-1.037 1.456-2.614 2.08-3.527.623-.912 1.954-2.364 2.951-3.194 1.123-.954 3.41-2.157 5.78-3.07 2.162-.788 5.24-2.116 6.86-2.946 1.581-.788 3.452-1.825 5.323-3.235l3.535 3.733c1.912 2.075 3.991 4.688 4.573 5.808.583 1.162 1.289 3.029 1.58 4.149.333 1.162.583 3.028.583 4.149 0 1.161-.291 3.194-.666 4.563-.332 1.37-1.081 3.319-1.663 4.356-.624 1.203-7.027 7.883-17.547 18.296-15.301 15.225-16.715 16.511-19.21 17.59-1.871.788-3.7 1.203-5.821 1.369-1.83.124-4.075 0-5.406-.332-1.247-.291-3.326-1.037-4.573-1.701-1.788-.913-5.946-4.854-18.545-17.466-13.514-13.566-16.466-16.677-17.34-18.586-.582-1.244-1.288-3.484-1.538-4.978-.374-2.033-.374-3.402-.041-5.6.29-1.577 1.08-4.108 1.788-5.601 1.164-2.406 3.076-4.44 16.715-18.088 8.482-8.463 16.175-15.93 17.09-16.595Zm29.19 12.944c.54-.373 1.122-1.12 1.372-1.7.208-.582.582-1.038.831-1.038.208 0 .874.498 1.456 1.12.582.664 1.164 1.742 1.289 2.406.125.664.125 1.701 0 2.282-.125.58-.873 1.66-1.705 2.365-1.206 1.12-1.788 1.369-3.326 1.369-1.539 0-2.121-.25-3.327-1.328-.956-.912-1.58-1.867-1.705-2.82-.124-.79-.041-1.95.208-2.573.416-1.037.54-1.079 1.081-.54.333.333 1.123.748 1.747.872.748.124 1.497 0 2.079-.415Zm-1.123 23.935c-.707.954-1.663 2.78-2.162 4.024-.624 1.618-.873 3.236-.915 5.6 0 1.826.208 4.44.54 5.809l.541 2.489c8.649-8.67 11.144-11.492 11.144-11.824 0-.331-1.622-2.24-3.66-4.273-1.995-1.991-3.742-3.609-3.908-3.609-.125 0-.832.788-1.58 1.784Z" fill="#fff"/><path d="m53.995 14.85-.077-.22-.006.002.083.217Zm-4.158 2.156.137.189.004-.003-.14-.186Zm11.02-2.987.006-.232h-.002l-.005.232Zm7.276 1.577.104-.208-.104.208Zm10.395 8.587-.161.169.061.059.086.005.014-.233Zm2.786.166.015-.232h-.001l-.014.232Zm4.283 1.618.164-.164-.003-.003-.162.167Zm1.663 2.2-.229.045.002.008.002.008.225-.062Zm2.578 1.368.063-.224h-.003l-.06.224Zm5.073 1.992-.107.207.005.002.102-.21Zm4.033 2.862-.177.152.006.006.17-.158Zm-.291 5.808.167.162.003-.003-.17-.159Zm-.873.498.195.127.002-.003-.197-.124Zm1.08-2.157.222.073.003-.01.003-.01-.227-.053Zm-.374-2.199.211-.1-.002-.004-.209.104Zm-2.62-2.49.125-.196-.002-.002-.122.199Zm-4.24-2.074.08-.218-.007-.002-.073.22Zm-3.95-1.203-.059.226.007.001.052-.227Zm-2.495-1.991-.206.108.002.005.204-.113Zm-2.287-2.49-.132.193.008.005.124-.197Zm-2.91-1.244.047-.228-.012-.002-.036.23Zm-6.072 2.116-.164-.165.164.165Zm-4.366 1.577-.02-.232h-.002l.022.232Zm-6.403 1.327.07.222-.07-.222Zm-5.821 2.655-.125-.196-.004.002.129.194Zm-4.034 3.236-.168-.16-.004.003.172.157Zm-2.993 4.107.199.121.002-.004-.201-.117Zm-1.705 3.527-.228-.05v.004l.228.046Zm-7.692 8.504.164.165-.164-.165ZM35.575 62.85l-.167.162.003.002.164-.164Zm2.828 1.866-.104-.208-.008.004.112.204Zm2.66-1.99.148.18.001-.001-.148-.18Zm3.369-4.606-.21-.1-.001.003.21.097Zm2.204-6.638-.227-.055v.005l.227.05Zm1.08-4.563-.224-.062-.002.01-.002.01.229.042Zm.042 2.696-.232-.01.232.01Zm-.831 6.016.224.061-.224-.061Zm-1.788 4.73.207.107v-.003l-.207-.105Zm-4.99 6.886-.18-.147-.134.163.15.149.164-.165Zm9.855 9.832.165-.164-.165.164Zm20.79-.29.165.164.068-.068v-.096h-.233Zm.79-13.898-.225-.06v.003l.225.057Zm1.746-4.978-.206-.108-.003.007.21.1Zm2.08-3.527-.193-.13.192.13Zm2.952-3.194.148.179.002-.002-.15-.177Zm5.78-3.07-.08-.219-.004.002.083.217Zm6.86-2.946-.104-.208-.002.001.106.207Zm5.322-3.235.17-.16-.144-.152-.166.126.14.186Zm3.535 3.733.171-.158-.002-.002-.17.16Zm4.573 5.808.209-.104-.002-.003-.207.107Zm1.58 4.149-.225.059.002.005.223-.064Zm-.083 8.712-.224-.061-.002.006.226.055Zm-1.663 4.356-.203-.114-.004.007.207.107ZM86.719 86.994l-.164-.166.164.165Zm-19.21 17.59.09.214.002-.001-.092-.213Zm-5.821 1.369.016.232h.002l-.018-.232Zm-5.406-.332.057-.226-.004-.001-.053.227Zm-4.573-1.701.109-.206-.004-.002-.105.208ZM33.164 86.454l-.165.165.165-.165Zm-17.34-18.586.212-.096v-.002l-.211.098Zm-1.538-4.978.23-.038v-.004l-.23.042Zm-.041-5.6-.23-.043v.008l.23.034Zm1.788-5.601-.21-.102-.001.002.21.1ZM32.748 33.6l-.165-.165.165.165Zm47.65-5.352.215.092.003-.007.002-.006-.22-.079Zm-1.371 1.701-.133-.191-.002.002.135.19Zm3.659-1.618.175-.153-.005-.006-.17.16Zm1.289 2.406.229-.043-.23.043Zm0 2.282.227.049-.227-.049Zm-1.705 2.365-.15-.178-.008.007.158.17Zm-6.653.041-.16.169.005.005.155-.174Zm-1.705-2.82.231-.031v-.006l-.23.036Zm.208-2.573.216.087-.216-.087Zm1.081-.54-.164.166.164-.165Zm1.747.872-.046.228.008.002.038-.23Zm-1.206 27.544-.216-.086-.001.002.217.084Zm2.162-4.024-.186-.14-.001.001.187.139Zm-3.077 9.625-.233-.004v.004h.233Zm.54 5.808.228-.05-.001-.005-.226.055Zm.541 2.489-.227.05.09.417.302-.303-.165-.164Zm7.485-16.097.164-.164-.164.164Zm-29.48-41.078c-1.425.543-3.319 1.507-4.216 2.19l.281.37c.849-.645 2.697-1.59 4.1-2.125l-.166-.435Zm6.948-.845c-1.83-.042-3.03-.022-4.041.105-1.016.127-1.834.361-2.902.738l.155.439c1.052-.37 1.835-.593 2.805-.715.974-.122 2.145-.143 3.973-.102l.01-.465Zm7.376 1.6c-1.331-.663-2.155-1.039-3.163-1.258-1.002-.218-2.178-.28-4.21-.342l-.015.465c2.042.062 3.174.125 4.126.332.946.206 1.724.557 3.054 1.22l.208-.416Zm10.452 8.628c-6.318-6.055-8.42-7.614-10.452-8.627l-.208.416c1.96.978 4.015 2.489 10.338 8.548l.322-.337Zm2.639.102-2.786-.166-.028.465 2.786.166.028-.465Zm4.43 1.683c-.688-.666-1.165-1.06-1.8-1.295-.626-.232-1.389-.305-2.629-.388l-.03.465c1.254.083 1.946.155 2.496.36.539.199.956.532 1.64 1.193l.323-.335Zm1.73 2.32a1.65 1.65 0 0 0-.212-.481 6.208 6.208 0 0 0-.398-.574 13.359 13.359 0 0 0-1.117-1.262l-.329.33c.389.387.777.825 1.076 1.216.15.195.276.375.368.529.095.16.143.271.155.334l.457-.092Zm2.41 1.19c-.76-.204-1.355-.427-1.77-.649a2.318 2.318 0 0 1-.471-.318.553.553 0 0 1-.173-.238l-.449.123c.047.172.161.324.306.458.147.135.339.263.568.386.458.244 1.09.478 1.868.688l.121-.45Zm5.119 2.01c-1.47-.755-3.772-1.632-5.116-2.009l-.126.448c1.316.37 3.589 1.236 5.03 1.975l.212-.415Zm4.103 2.917c-.392-.457-1.055-1.009-1.793-1.531a17.137 17.137 0 0 0-2.315-1.389l-.203.42a16.69 16.69 0 0 1 2.249 1.349c.727.514 1.353 1.04 1.71 1.455l.352-.304Zm1.47 2.932c0-.917-.518-1.898-1.475-2.938l-.342.316c.927 1.007 1.352 1.879 1.352 2.622h.465Zm-1.767 3.187c1.208-1.288 1.767-2.177 1.767-3.187h-.465c0 .814-.439 1.585-1.642 2.869l.34.318Zm-1.238.212c-.155.237-.268.42-.324.539a.703.703 0 0 0-.038.096c-.006.021-.026.09-.006.165a.246.246 0 0 0 .263.181.332.332 0 0 0 .135-.045 1.46 1.46 0 0 0 .183-.138c.068-.06.151-.136.248-.229.194-.186.451-.445.774-.778l-.334-.324c-.322.331-.575.586-.763.766-.093.09-.17.16-.23.212a.94.94 0 0 1-.11.087c-.012.007.012-.01.056-.014a.219.219 0 0 1 .228.16.193.193 0 0 1 .002.09l.003-.008a5.047 5.047 0 0 1 .302-.506l-.39-.254Zm1.055-2.104c-.158.474-.647 1.452-1.058 2.107l.395.248c.421-.673.93-1.686 1.104-2.208l-.441-.147Zm-.364-2.026c.156.332.275.726.34 1.102.065.38.07.719.018.945l.453.105c.073-.312.057-.72-.013-1.129a4.874 4.874 0 0 0-.377-1.221l-.421.198Zm-2.533-2.391c.547.343 1.106.79 1.57 1.231.467.447.818.87.965 1.165l.417-.208c-.185-.37-.584-.838-1.061-1.293a10.776 10.776 0 0 0-1.643-1.29l-.248.395Zm-4.197-2.053c1.23.45 3.13 1.397 4.199 2.054l.244-.397c-1.093-.67-3.02-1.632-4.283-2.094l-.16.437ZM87.624 30.8c.901.205 2.677.781 3.928 1.197l.147-.441c-1.243-.414-3.044-1-3.972-1.21l-.103.454Zm-2.647-2.105c.338.612.657 1.057 1.071 1.39.415.335.908.544 1.57.714l.116-.451c-.628-.162-1.05-.348-1.394-.625-.345-.278-.629-.663-.956-1.254l-.407.226ZM82.77 26.29c.372.234.813.623 1.22 1.065.408.442.768.923.985 1.335l.412-.216c-.241-.46-.63-.974-1.054-1.434-.424-.46-.897-.88-1.315-1.144l-.248.394Zm-2.835-1.214c.762.16 2.064.688 2.827 1.21l.263-.385c-.817-.558-2.176-1.109-2.994-1.28l-.096.455Zm-3 .285c.885-.281 2.262-.4 3.012-.283l.072-.46c-.83-.13-2.28-.001-3.225.299l.141.444Zm-2.858 1.768c.682-.681 1.981-1.49 2.858-1.768l-.14-.444c-.954.302-2.316 1.153-3.047 1.882l.329.33Zm-4.51 1.643c1.348-.124 2.189-.24 2.834-.474.66-.24 1.105-.6 1.676-1.17l-.329-.329c-.552.551-.94.855-1.506 1.061-.58.211-1.362.324-2.717.449l.043.463Zm-6.354 1.318c1.815-.576 4.668-1.153 6.356-1.318l-.045-.463c-1.721.167-4.607.752-6.451 1.337l.14.444Zm-5.766 2.63c1.353-.86 3.954-2.054 5.766-2.63l-.14-.444c-1.847.586-4.485 1.798-5.876 2.68l.25.394Zm-3.99 3.2c.815-.854 2.63-2.295 3.994-3.203l-.258-.388c-1.38.918-3.225 2.381-4.073 3.27l.337.32Zm-2.96 4.063c.78-1.354 2.143-3.166 2.964-4.067l-.345-.314c-.842.925-2.224 2.764-3.023 4.148l.403.233Zm-1.68 3.459c.056-.26.263-.777.57-1.416.304-.631.695-1.361 1.107-2.039l-.398-.242c-.42.692-.819 1.435-1.129 2.08-.306.636-.536 1.198-.605 1.519l.455.097Zm-7.755 8.62c2.268-2.263 4.163-4.236 5.507-5.723a38.18 38.18 0 0 0 1.587-1.847c.188-.24.34-.445.449-.614.103-.16.188-.313.213-.44l-.456-.091c-.006.03-.043.116-.148.278-.098.151-.24.345-.424.579a37.639 37.639 0 0 1-1.566 1.822c-1.338 1.48-3.226 3.447-5.49 5.706l.328.33Zm-7.416 7.925c0 .032-.009.05-.006.043a1.728 1.728 0 0 1 .115-.182c.095-.132.238-.313.427-.538.377-.449.923-1.061 1.6-1.794a197.475 197.475 0 0 1 5.28-5.454l-.329-.33a198.106 198.106 0 0 0-5.292 5.468 53.95 53.95 0 0 0-1.616 1.81c-.191.23-.343.42-.448.567a1.99 1.99 0 0 0-.128.196.709.709 0 0 0-.043.09.347.347 0 0 0-.026.124h.466Zm2.096 2.7a19.296 19.296 0 0 1-1.514-1.75 7.025 7.025 0 0 1-.445-.655 1.842 1.842 0 0 1-.111-.216c-.026-.062-.026-.084-.026-.079h-.466c0 .088.03.179.061.256.034.082.082.175.14.273.114.198.277.437.475.7.396.527.943 1.167 1.552 1.796l.334-.324Zm2.55 1.825c-.101.055-.304.06-.753-.238-.431-.287-1.01-.802-1.8-1.59l-.328.33c.79.79 1.397 1.333 1.87 1.647.455.303.876.454 1.233.26l-.223-.409Zm2.625-1.968c-.56.455-1.14.91-1.62 1.27-.49.368-.855.623-.998.694l.208.417c.19-.095.593-.38 1.07-.738.486-.365 1.07-.823 1.634-1.281l-.294-.361Zm3.303-4.521c-.945 2.05-1.882 3.347-3.305 4.523l.297.359c1.488-1.23 2.464-2.59 3.431-4.687l-.423-.195Zm2.188-6.59c-.454 2.06-1.447 5.03-2.186 6.587l.42.2c.757-1.595 1.76-4.599 2.221-6.688l-.455-.1Zm1.08-4.556c-.082.447-.578 2.512-1.078 4.55l.452.11c.497-2.027.999-4.111 1.084-4.576l-.458-.084Zm.503 2.748c.041-.975.063-1.769.057-2.263a3.427 3.427 0 0 0-.032-.535.371.371 0 0 0-.042-.115.242.242 0 0 0-.335-.089.263.263 0 0 0-.084.082.359.359 0 0 0-.03.055.748.748 0 0 0-.033.097l.45.123a.522.522 0 0 1 .007-.026l.003-.009-.002.004a.201.201 0 0 1-.074.075.224.224 0 0 1-.302-.074c-.016-.027-.018-.046-.015-.03.011.053.021.199.024.447.005.481-.016 1.264-.057 2.239l.465.02Zm-.84 6.067c.38-1.39.756-4.105.84-6.067l-.465-.02c-.083 1.939-.456 4.617-.824 5.965l.45.122Zm-1.804 4.773c.631-1.26 1.426-3.39 1.804-4.773l-.449-.122c-.37 1.355-1.155 3.457-1.771 4.686l.416.209Zm-5.018 6.93c2.996-3.653 4.38-5.702 5.016-6.927l-.413-.215c-.612 1.18-1.97 3.198-4.963 6.846l.36.296Zm9.84 9.52-9.856-9.833-.328.33 9.854 9.832.33-.33Zm10.063 9.805c.035 0 .06.009.064.01.008.003.012.006.01.004a2.938 2.938 0 0 1-.214-.162c-.156-.128-.372-.32-.646-.57a117.162 117.162 0 0 1-2.233-2.115 539.248 539.248 0 0 1-7.044-6.972l-.33.328a539.907 539.907 0 0 0 7.05 6.978 118.21 118.21 0 0 0 2.243 2.125c.275.252.499.45.663.585a3.5 3.5 0 0 0 .208.162.86.86 0 0 0 .084.053.41.41 0 0 0 .052.023.279.279 0 0 0 .093.017v-.466ZM70.63 76.624c-3.929 3.94-6.516 6.48-8.146 8.033a59.961 59.961 0 0 1-1.77 1.64 8.156 8.156 0 0 1-.43.356.91.91 0 0 1-.102.07l-.011.007a.186.186 0 0 1 .062-.01v.465a.304.304 0 0 0 .115-.024.549.549 0 0 0 .07-.036c.043-.025.092-.06.146-.1.11-.083.261-.207.455-.377.39-.34.97-.875 1.787-1.654 1.634-1.557 4.224-4.1 8.154-8.042l-.33-.328Zm-.068-5.23v5.394h.466v-5.393h-.466Zm.797-8.56c-.589 2.35-.797 4.528-.797 8.56h.466c0-4.015.207-6.15.783-8.447l-.452-.114Zm1.763-5.023c-.508 1.054-1.302 3.31-1.762 5.019l.45.12c.455-1.692 1.24-3.918 1.731-4.937l-.42-.202Zm2.096-3.557c-.63.923-1.55 2.508-2.093 3.55l.413.215c.537-1.031 1.447-2.6 2.064-3.502l-.384-.263Zm2.996-3.242c-1.013.842-2.359 2.31-2.996 3.242l.385.263c.61-.893 1.925-2.33 2.908-3.147l-.297-.358Zm5.845-3.108c-2.379.916-4.695 2.13-5.847 3.11l.301.354c1.093-.928 3.35-2.12 5.713-3.03l-.167-.434Zm6.838-2.936c-1.612.825-4.68 2.149-6.835 2.934l.16.438c2.17-.791 5.255-2.123 6.887-2.957l-.212-.415Zm5.288-3.214c-1.855 1.399-3.713 2.429-5.286 3.213l.208.417c1.587-.792 3.472-1.836 5.358-3.258l-.28-.372Zm3.844 3.76-3.535-3.735-.338.32 3.535 3.734.338-.32Zm4.611 5.86c-.302-.582-.981-1.53-1.812-2.583a58.763 58.763 0 0 0-2.797-3.275l-.343.315a58.126 58.126 0 0 1 2.775 3.249c.832 1.053 1.484 1.97 1.764 2.509l.413-.215Zm1.599 4.197c-.296-1.137-1.009-3.019-1.597-4.194l-.417.209c.576 1.148 1.277 3 1.563 4.103l.451-.118Zm.589 4.208c0-1.141-.252-3.03-.591-4.213l-.447.128c.326 1.14.573 2.986.573 4.085h.465Zm-.673 4.625c.379-1.386.673-3.44.673-4.625h-.465c0 1.137-.288 3.15-.657 4.502l.449.123Zm-1.685 4.408c.594-1.058 1.35-3.028 1.687-4.415l-.453-.11c-.328 1.352-1.07 3.281-1.64 4.297l.406.228ZM86.883 87.16c5.26-5.207 9.493-9.482 12.489-12.606a149.365 149.365 0 0 0 3.543-3.798c.427-.48.772-.884 1.031-1.207.255-.318.437-.57.527-.743l-.414-.214c-.066.128-.22.348-.476.666-.252.314-.591.71-1.016 1.188-.85.955-2.035 2.226-3.531 3.786-2.992 3.12-7.221 7.391-12.48 12.597l.327.331ZM67.6 104.797c1.282-.554 2.281-1.164 4.868-3.532 2.582-2.363 6.765-6.495 14.414-14.106l-.328-.33c-7.652 7.614-11.827 11.738-14.4 14.093-2.57 2.351-3.525 2.923-4.738 3.448l.184.427Zm-5.895 1.388c2.142-.168 3.997-.588 5.893-1.387l-.18-.429c-1.846.778-3.65 1.187-5.75 1.352l.037.464Zm-5.48-.338c1.362.339 3.634.463 5.478.338l-.032-.465c-1.815.124-4.034-.001-5.333-.325l-.113.452Zm-4.627-1.722c1.267.675 3.365 1.428 4.63 1.723l.106-.454c-1.23-.286-3.29-1.026-4.517-1.68l-.219.411ZM33 86.619c6.3 6.305 10.49 10.446 13.331 13.125 2.832 2.669 4.343 3.909 5.273 4.383l.211-.415c-.858-.438-2.32-1.625-5.164-4.307-2.835-2.673-7.022-6.81-13.322-13.115l-.33.329ZM15.613 67.965c.455.994 1.438 2.276 3.97 4.984 2.54 2.715 6.66 6.887 13.416 13.67l.33-.33c-6.758-6.783-10.872-10.95-13.405-13.658-2.54-2.717-3.47-3.945-3.888-4.86l-.423.194Zm-1.556-5.037c.252 1.515.966 3.775 1.557 5.039l.421-.197c-.573-1.226-1.273-3.446-1.52-4.918l-.459.076Zm-.043-5.673c-.336 2.22-.336 3.616.043 5.677l.458-.084c-.369-2.005-.37-3.347-.04-5.524l-.46-.07Zm1.808-5.666c-.716 1.513-1.512 4.063-1.806 5.658l.457.085c.288-1.559 1.072-4.07 1.77-5.544l-.421-.199Zm16.761-18.153c-6.818 6.823-10.71 10.748-13.041 13.267-2.334 2.52-3.122 3.65-3.72 4.884l.42.203c.567-1.171 1.317-2.261 3.641-4.771 2.325-2.511 6.209-6.428 13.03-13.254l-.33-.329Zm17.118-16.618c-.244.177-.91.782-1.887 1.702-.983.927-2.297 2.188-3.846 3.692a1231.897 1231.897 0 0 0-11.385 11.224l.33.33a1224 1224 0 0 1 11.38-11.22 376.779 376.779 0 0 1 3.84-3.687c.989-.932 1.628-1.51 1.841-1.664l-.273-.377Zm30.484 11.34c-.234.543-.79 1.254-1.29 1.6l.264.384c.58-.4 1.189-1.184 1.454-1.801l-.428-.184Zm1.046-1.179a.6.6 0 0 0-.34.123 1.4 1.4 0 0 0-.273.264 2.82 2.82 0 0 0-.438.805l.438.157c.096-.27.23-.505.362-.669a.942.942 0 0 1 .179-.176c.054-.039.077-.038.072-.038v-.466Zm1.625 1.194c-.3-.32-.62-.609-.897-.82a3.353 3.353 0 0 0-.381-.257 1.242 1.242 0 0 0-.167-.08.52.52 0 0 0-.18-.037v.466c-.015 0-.013-.003.016.007a.8.8 0 0 1 .103.05c.088.05.2.125.327.222.254.194.556.465.839.767l.34-.318Zm1.348 2.522c-.07-.365-.258-.825-.497-1.27a6.924 6.924 0 0 0-.846-1.246l-.35.307c.277.315.558.736.786 1.16.229.426.393.837.45 1.135l.457-.086Zm-.001 2.374c.132-.615.13-1.684 0-2.374l-.457.086c.12.638.119 1.643.001 2.19l.456.098Zm-1.782 2.493a7.14 7.14 0 0 0 1.156-1.271c.312-.437.553-.884.626-1.222l-.456-.098c-.052.243-.247.626-.55 1.05a6.637 6.637 0 0 1-1.077 1.186l.3.355Zm-3.477 1.425c.78 0 1.346-.063 1.877-.283.528-.218 1-.585 1.608-1.149l-.317-.34c-.599.555-1.02.874-1.47 1.06-.446.184-.94.246-1.698.246v.466ZM75.462 35.6c.607.543 1.079.898 1.607 1.11.53.214 1.095.277 1.875.277v-.466c-.76 0-1.254-.062-1.701-.242-.45-.182-.872-.49-1.47-1.026l-.311.347Zm-1.78-2.965c.134 1.031.802 2.031 1.775 2.96l.32-.337c-.94-.897-1.52-1.805-1.634-2.683l-.461.06Zm.222-2.689c-.137.343-.223.815-.26 1.293a6.27 6.27 0 0 0 .038 1.403l.46-.073a5.81 5.81 0 0 1-.034-1.294c.036-.456.116-.875.228-1.155l-.432-.174Zm1.462-.617a2.142 2.142 0 0 0-.384-.325c-.13-.077-.296-.125-.469-.041-.145.07-.246.212-.328.36a5.776 5.776 0 0 0-.28.623l.431.174a5.36 5.36 0 0 1 .256-.571.837.837 0 0 1 .088-.134c.024-.027.036-.033.035-.033-.022.01-.029-.012.03.023.065.039.156.118.292.254l.329-.33Zm1.627.808a3.798 3.798 0 0 1-.922-.337c-.307-.156-.563-.33-.705-.471l-.329.33c.19.19.496.39.823.556.33.167.704.31 1.042.378l.091-.456Zm1.899-.376c-.522.371-1.205.49-1.906.374l-.076.46c.795.132 1.61.003 2.252-.455l-.27-.38Zm-2.934 28.235c.494-1.232 1.441-3.039 2.133-3.972l-.374-.278c-.722.975-1.687 2.82-2.191 4.076l.432.174Zm-.898 5.518c.041-2.349.289-3.937.899-5.521l-.434-.168c-.637 1.653-.889 3.3-.93 5.68l.465.009Zm.534 5.749c-.326-1.343-.534-3.936-.534-5.753h-.466c0 1.833.208 4.468.547 5.863l.453-.11Zm.542 2.495-.54-2.49-.456.1.54 2.488.456-.098Zm10.683-11.775c0-.037.012-.048-.006-.011-.014.028-.039.07-.078.129a7.09 7.09 0 0 1-.388.502 48.966 48.966 0 0 1-1.794 2.006c-1.702 1.828-4.486 4.699-8.81 9.034l.33.328c4.325-4.336 7.113-7.21 8.82-9.044a49.486 49.486 0 0 0 1.813-2.027 7.49 7.49 0 0 0 .414-.538c.046-.068.083-.129.11-.183a.453.453 0 0 0 .055-.196h-.466Zm-3.59-4.108a49.754 49.754 0 0 1 2.58 2.761c.328.384.59.711.768.96.09.126.155.228.197.304a.724.724 0 0 1 .041.086c.009.022.004.018.004-.003h.466a.467.467 0 0 0-.034-.162 1.16 1.16 0 0 0-.069-.145 3.676 3.676 0 0 0-.226-.35 15.23 15.23 0 0 0-.793-.992 50.197 50.197 0 0 0-2.606-2.788l-.329.33Zm-3.745-3.541c-.036 0-.06-.01-.062-.01-.006-.003-.006-.003 0 0a.677.677 0 0 1 .06.04c.061.043.145.11.253.2.214.179.507.44.86.766.703.65 1.637 1.55 2.633 2.545l.329-.33c-1-.997-1.937-1.901-2.647-2.557a25.504 25.504 0 0 0-.876-.782 4.807 4.807 0 0 0-.281-.221 1.105 1.105 0 0 0-.107-.07.452.452 0 0 0-.06-.027.29.29 0 0 0-.102-.02v.466Zm-1.394 1.69c.371-.493.731-.934 1.012-1.25a5.86 5.86 0 0 1 .347-.364.963.963 0 0 1 .098-.084l.01-.007a.186.186 0 0 1-.073.015v-.466a.303.303 0 0 0-.133.033.548.548 0 0 0-.076.047 1.511 1.511 0 0 0-.144.122 6.316 6.316 0 0 0-.377.395c-.291.327-.659.778-1.036 1.28l.372.28Z" fill="#000" fill-opacity=".5"/></svg>